<?xml version="1.0" encoding="UTF-8" standalone="no"?>
<!DOCTYPE svg PUBLIC "-//W3C//DTD SVG 1.1//EN" "http://www.w3.org/Graphics/SVG/1.1/DTD/svg11.dtd">
<!-- Generated by Microsoft Visio, SVG Export matter_components.svg Page-1 -->
<svg xmlns="http://www.w3.org/2000/svg" xmlns:xlink="http://www.w3.org/1999/xlink" xmlns:ev="http://www.w3.org/2001/xml-events"
		width="3.74027in" height="3.09646in" viewBox="0 0 269.299 222.945" xml:space="preserve" color-interpolation-filters="sRGB"
		class="st10">
	<style type="text/css">
	<![CDATA[
		.st1 {fill:#d0df00;stroke:none;stroke-linecap:round;stroke-linejoin:round;stroke-width:0.75}
		.st2 {fill:#333f48;font-family:Calibri;font-size:1.00001em}
		.st3 {fill:#768692;stroke:none;stroke-width:1}
		.st4 {fill:#ffffff;font-family:Calibri;font-size:1.00001em}
		.st5 {fill:#333f48;stroke:none;stroke-width:1}
		.st6 {marker-end:url(#mrkr4-33);stroke:#333f48;stroke-linecap:butt;stroke-width:1}
		.st7 {fill:#333f48;fill-opacity:1;stroke:#333f48;stroke-opacity:1;stroke-width:0.28409090909091}
		.st8 {fill:none;stroke:none;stroke-width:1}
		.st9 {font-size:1em}
		.st10 {fill:none;fill-rule:evenodd;font-size:12px;overflow:visible;stroke-linecap:square;stroke-miterlimit:3}
	]]>
	</style>

	<defs id="Markers">
		<g id="lend4">
			<path d="M 2 1 L 0 0 L 2 -1 L 2 1 " style="stroke:none"/>
		</g>
		<marker id="mrkr4-33" class="st7" refX="-7.04" orient="auto" markerUnits="strokeWidth" overflow="visible">
			<use xlink:href="#lend4" transform="scale(-3.52,-3.52) "/>
		</marker>
	</defs>
	<g>
		<title>Page-1</title>
		<g id="shape3241-1">
			<title>Sheet.3241</title>
			<desc>Matter stack</desc>
			<path d="M0 0 L0 222.94 L220.11 222.94 L220.11 0 L0 0 L0 0 Z" class="st1"/>
			<text x="79.1" y="14.8" class="st2">Matter stack</text>		</g>
		<g id="shape3299-4" transform="translate(10.3465,-181.417)">
			<title>Sheet.3299</title>
			<desc>Application</desc>
			<path d="M198.43 204.09 L0 204.09 L0 222.94 L198.43 222.94 L198.43 204.09 Z" class="st3"/>
			<text x="71.57" y="218.02" class="st4">Application</text>		</g>
		<g id="shape3310-7" transform="translate(10.3465,-154.984)">
			<title>Sheet.3310</title>
			<desc>Data Model</desc>
			<path d="M198.43 204.09 L0 204.09 L0 222.94 L198.43 222.94 L198.43 204.09 Z" class="st3"/>
			<text x="70.6" y="218.02" class="st4">Data Model</text>		</g>
		<g id="shape3311-10" transform="translate(10.3465,-128.268)">
			<title>Sheet.3311</title>
			<desc>Interaction Model</desc>
			<path d="M198.43 204.09 L0 204.09 L0 222.94 L198.43 222.94 L198.43 204.09 Z" class="st3"/>
			<text x="55.18" y="218.02" class="st4">Interaction Model</text>		</g>
		<g id="shape3312-13" transform="translate(10.3465,-103.039)">
			<title>Sheet.3312</title>
			<desc>Action Framing</desc>
			<path d="M198.43 204.09 L0 204.09 L0 222.94 L198.43 222.94 L198.43 204.09 Z" class="st3"/>
			<text x="62.27" y="218.02" class="st4">Action Framing</text>		</g>
		<g id="shape3313-16" transform="translate(10.3465,-77.8105)">
			<title>Sheet.3313</title>
			<desc>Security</desc>
			<path d="M198.43 204.09 L0 204.09 L0 222.94 L198.43 222.94 L198.43 204.09 Z" class="st3"/>
			<text x="79.59" y="218.02" class="st4">Security</text>		</g>
		<g id="shape3314-19" transform="translate(10.3465,-52.5819)">
			<title>Sheet.3314</title>
			<desc>Message Framing and Routing</desc>
			<path d="M198.43 204.09 L0 204.09 L0 222.94 L198.43 222.94 L198.43 204.09 Z" class="st3"/>
			<text x="25.67" y="218.02" class="st4">Message Framing and Routing</text>		</g>
		<g id="shape3315-22" transform="translate(10.3465,-11.3386)">
			<title>Sheet.3315</title>
			<desc>IP Framing and Transport</desc>
			<path d="M198.43 188.08 L0 188.08 L0 222.94 L198.43 222.94 L198.43 188.08 Z" class="st3"/>
			<text x="14.17" y="210.01" class="st4">IP Framing and Transport</text>		</g>
		<g id="shape3298-25" transform="translate(157.164,-14.1732)">
			<title>Sheet.3298</title>
			<desc>BTP</desc>
			<path d="M48.77 194.6 L0 194.6 L0 222.94 L48.77 222.94 L48.77 194.6 Z" class="st5"/>
			<text x="15.1" y="213.27" class="st4">BTP</text>		</g>
		<g id="shape3316-28" transform="translate(460.063,24.5197) rotate(90)">
			<title>Sheet.3316</title>
			<path d="M0 222.94 L180.05 222.94" class="st6"/>
		</g>
		<g id="shape3317-34" transform="translate(28.3465,211.606) rotate(-90)">
			<title>Sheet.3317</title>
			<path d="M0 222.94 L180.05 222.94" class="st6"/>
		</g>
		<g id="shape3318-39" transform="translate(220.11,-163.56)">
			<title>Sheet.3318</title>
			<desc>TX</desc>
			<rect x="0" y="188.079" width="17.0079" height="34.8654" class="st8"/>
			<text x="5.58" y="201.91" class="st2">T<tspan x="5.39" dy="1.2em" class="st9">X</tspan></text>		</g>
		<g id="shape3320-43" transform="translate(251.291,-11.3386)">
			<title>Sheet.3320</title>
			<desc>RX</desc>
			<rect x="0" y="188.079" width="17.0079" height="34.8654" class="st8"/>
			<text x="5.25" y="201.91" class="st2">R<tspan x="5.39" dy="1.2em" class="st9">X</tspan></text>		</g>
	</g>
</svg>
