<?xml version="1.0" encoding="UTF-8" standalone="no"?>
<!DOCTYPE svg PUBLIC "-//W3C//DTD SVG 1.1//EN" "http://www.w3.org/Graphics/SVG/1.1/DTD/svg11.dtd">
<!-- Generated by Microsoft Visio, SVG Export matter_architecture.svg Page-1 -->
<svg xmlns="http://www.w3.org/2000/svg" xmlns:xlink="http://www.w3.org/1999/xlink" xmlns:ev="http://www.w3.org/2001/xml-events"
		width="6.0514in" height="3.39381in" viewBox="0 0 435.701 244.354" xml:space="preserve" color-interpolation-filters="sRGB"
		class="st9">
	<style type="text/css">
	<![CDATA[
		.st1 {fill:#768692;stroke:none;stroke-width:1}
		.st2 {fill:#feffff;font-family:Calibri;font-size:0.833336em}
		.st3 {fill:#d0df00;stroke:none;stroke-linecap:round;stroke-linejoin:round;stroke-width:0.75}
		.st4 {fill:#333f48;font-family:Calibri;font-size:1.00001em}
		.st5 {stroke:none;stroke-linecap:round;stroke-linejoin:round;stroke-width:0.75}
		.st6 {fill:#333f48;stroke:none;stroke-width:1}
		.st7 {fill:#ffffff;font-family:Calibri;font-size:1.00001em}
		.st8 {font-size:1em}
		.st9 {fill:none;fill-rule:evenodd;font-size:12px;overflow:visible;stroke-linecap:square;stroke-miterlimit:3}
	]]>
	</style>

	<g>
		<title>Page-1</title>
		<g id="shape3315-1" transform="translate(373.763,-3.70608)">
			<title>Sheet.3315</title>
			<path d="M60.94 102.92 L0 102.92 L0 244.35 L60.94 244.35 L60.94 102.92 Z" class="st1"/>
		</g>
		<g id="shape3313-3" transform="translate(1,-1)">
			<title>Sheet.3313</title>
			<desc>Link</desc>
			<path d="M0 184.69 L0 244.35 L433.7 244.35 L433.7 184.69 L0 184.69 L0 184.69 Z" class="st1"/>
			<text x="14.17" y="217.52" class="st2">Link</text>		</g>
		<g id="shape3312-6" transform="translate(1,-63.7874)">
			<title>Sheet.3312</title>
			<desc>Network</desc>
			<path d="M0 205.52 L0 244.35 L370.49 244.35 L370.49 205.52 L0 205.52 L0 205.52 Z" class="st1"/>
			<text x="14.17" y="227.94" class="st2">Network</text>		</g>
		<g id="shape3241-9" transform="translate(69.7256,-149.677)">
			<title>Sheet.3241</title>
			<desc>Matter stack</desc>
			<path d="M0 149.68 L0 244.35 L364.98 244.35 L364.98 149.68 L0 149.68 L0 149.68 Z" class="st3"/>
			<text x="151.54" y="200.62" class="st4">Matter stack</text>		</g>
		<g id="shape3196-12" transform="translate(1,-105.457)">
			<title>Sheet.3196</title>
			<desc>Transport</desc>
			<path d="M0 204.67 L0 244.35 L370.49 244.35 L370.49 204.67 L0 204.67 L0 204.67 Z" class="st1"/>
			<text x="14.17" y="227.51" class="st2">Transport</text>		</g>
		<g id="shape3203-15" transform="translate(74.8579,-26.1462)">
			<title>Sheet.3203</title>
			<path d="M196.93 225.71 L0 225.71 L0 244.35 L196.93 244.35 L196.93 225.71" class="st5"/>
		</g>
		<g id="shape3302-18" transform="translate(143.707,-3.70608)">
			<title>Sheet.3302</title>
			<desc>Wi-Fi</desc>
			<path d="M59.24 189.93 L0 189.93 L0 244.35 L59.24 244.35 L59.24 189.93 Z" class="st6"/>
			<text x="16.93" y="221.64" class="st7">Wi-Fi</text>		</g>
		<g id="shape3303-21" transform="translate(69.7256,-3.70608)">
			<title>Sheet.3303</title>
			<desc>Ethernet</desc>
			<path d="M59.24 189.93 L0 189.93 L0 244.35 L59.24 244.35 L59.24 189.93 Z" class="st6"/>
			<text x="8.3" y="221.64" class="st7">Ethernet</text>		</g>
		<g id="shape3304-24" transform="translate(217.689,-3.70608)">
			<title>Sheet.3304</title>
			<desc>802.15.4</desc>
			<path d="M143.31 219.4 L0 219.4 L0 244.35 L143.31 244.35 L143.31 219.4 Z" class="st6"/>
			<text x="50.38" y="236.38" class="st7">802.15.4</text>		</g>
		<g id="shape3305-27" transform="translate(217.689,-33.1732)">
			<title>Sheet.3305</title>
			<desc>Thread</desc>
			<path d="M143.31 219.4 L0 219.4 L0 244.35 L143.31 244.35 L143.31 219.4 Z" class="st6"/>
			<text x="54.48" y="236.38" class="st7">Thread</text>		</g>
		<g id="shape3306-30" transform="translate(375.464,-3.70608)">
			<title>Sheet.3306</title>
			<desc>Bluetooth LE</desc>
			<path d="M57.53 106.24 L0 106.24 L0 244.35 L57.53 244.35 L57.53 106.24 Z" class="st6"/>
			<text x="4.49" y="169.3" class="st7">Bluetooth <tspan x="23.31" dy="1.375em" class="st8">LE</tspan></text>		</g>
		<g id="shape3198-34" transform="translate(69.7256,-107.833)">
			<title>Sheet.3198</title>
			<desc>TCP</desc>
			<path d="M143.31 210.37 L0 210.37 L0 244.35 L143.31 244.35 L143.31 210.37 Z" class="st6"/>
			<text x="62.43" y="230.96" class="st7">TCP</text>		</g>
		<g id="shape3200-37" transform="translate(226.192,-107.833)">
			<title>Sheet.3200</title>
			<desc>UDP</desc>
			<path d="M143.31 210.37 L0 210.37 L0 244.35 L143.31 244.35 L143.31 210.37 Z" class="st6"/>
			<text x="61.02" y="231.86" class="st7">UDP</text>		</g>
		<g id="shape3311-40" transform="translate(69.7256,-65.9884)">
			<title>Sheet.3311</title>
			<desc>IPv6</desc>
			<path d="M299.78 210.37 L0 210.37 L0 244.35 L299.78 244.35 L299.78 210.37 Z" class="st6"/>
			<text x="139.53" y="230.96" class="st7">IPv6</text>		</g>
		<g id="shape3314-43" transform="translate(375.464,-152.228)">
			<title>Sheet.3314</title>
			<desc>BTP</desc>
			<path d="M57.53 210.37 L0 210.37 L0 244.35 L57.53 244.35 L57.53 210.37 Z" class="st6"/>
			<text x="19.48" y="231.86" class="st7">BTP</text>		</g>
	</g>
</svg>
