<?xml version="1.0" encoding="UTF-8" standalone="no"?>
<!DOCTYPE svg PUBLIC "-//W3C//DTD SVG 1.1//EN" "http://www.w3.org/Graphics/SVG/1.1/DTD/svg11.dtd">
<!-- Generated by Microsoft Visio, SVG Export matter_components_DM.svg Page-1 -->
<svg xmlns="http://www.w3.org/2000/svg" xmlns:xlink="http://www.w3.org/1999/xlink" xmlns:ev="http://www.w3.org/2001/xml-events"
		width="5.30383in" height="2.86888in" viewBox="0 0 381.876 206.559" xml:space="preserve" color-interpolation-filters="sRGB"
		class="st12">
	<style type="text/css">
	<![CDATA[
		.st1 {fill:#d0df00;stroke:none;stroke-linecap:round;stroke-linejoin:round;stroke-width:0.75}
		.st2 {fill:#333f48;font-family:Calibri;font-size:0.75em}
		.st3 {fill:#768692;stroke:none;stroke-width:1}
		.st4 {fill:#ffffff;font-family:Calibri;font-size:0.75em}
		.st5 {fill:#ffffff;font-family:Calibri;font-size:1.00001em}
		.st6 {fill:#333f48;stroke:none;stroke-linecap:round;stroke-linejoin:round;stroke-width:0.75}
		.st7 {fill:#768692;stroke:none;stroke-linecap:round;stroke-linejoin:round;stroke-width:0.75}
		.st8 {fill:#d9e1e2;stroke:none;stroke-linecap:round;stroke-linejoin:round;stroke-width:0.75}
		.st9 {fill:#333f48;font-family:Calibri;font-size:1.00001em}
		.st10 {fill:#feffff;font-family:Calibri;font-size:1.00001em}
		.st11 {stroke:#768692;stroke-linecap:butt;stroke-width:1}
		.st12 {fill:none;fill-rule:evenodd;font-size:12px;overflow:visible;stroke-linecap:square;stroke-miterlimit:3}
	]]>
	</style>

	<g>
		<title>Page-1</title>
		<g id="shape3241-1">
			<title>Sheet.3241</title>
			<desc>Matter stack</desc>
			<path d="M0 60.53 L0 206.56 L144.18 206.56 L144.18 60.53 L0 60.53 L0 60.53 Z" class="st1"/>
			<text x="48.87" y="72.63" class="st2">Matter stack</text>		</g>
		<g id="shape3299-4" transform="translate(7.102,-114.627)">
			<title>Sheet.3299</title>
			<desc>Application</desc>
			<path d="M129.97 194.21 L0 194.21 L0 206.56 L129.97 206.56 L129.97 194.21 Z" class="st3"/>
			<text x="44.25" y="203.39" class="st4">Application</text>		</g>
		<g id="shape3310-7" transform="translate(7.102,-97.3124)">
			<title>Sheet.3310</title>
			<desc>Data Model</desc>
			<path d="M129.97 194.21 L0 194.21 L0 206.56 L129.97 206.56 L129.97 194.21 Z" class="st3"/>
			<text x="43.52" y="203.39" class="st4">Data Model</text>		</g>
		<g id="shape3311-10" transform="translate(7.102,-79.8128)">
			<title>Sheet.3311</title>
			<desc>Interaction Model</desc>
			<path d="M129.97 194.21 L0 194.21 L0 206.56 L129.97 206.56 L129.97 194.21 Z" class="st3"/>
			<text x="31.96" y="203.39" class="st4">Interaction Model</text>		</g>
		<g id="shape3312-13" transform="translate(7.102,-63.2877)">
			<title>Sheet.3312</title>
			<desc>Action Framing</desc>
			<path d="M129.97 194.21 L0 194.21 L0 206.56 L129.97 206.56 L129.97 194.21 Z" class="st3"/>
			<text x="37.28" y="203.39" class="st4">Action Framing</text>		</g>
		<g id="shape3313-16" transform="translate(7.102,-46.7627)">
			<title>Sheet.3313</title>
			<desc>Security</desc>
			<path d="M129.97 194.21 L0 194.21 L0 206.56 L129.97 206.56 L129.97 194.21 Z" class="st3"/>
			<text x="50.27" y="203.39" class="st4">Security</text>		</g>
		<g id="shape3314-19" transform="translate(7.102,-30.2376)">
			<title>Sheet.3314</title>
			<desc>Message Framing and Routing</desc>
			<path d="M129.97 194.21 L0 194.21 L0 206.56 L129.97 206.56 L129.97 194.21 Z" class="st3"/>
			<text x="9.83" y="203.39" class="st4">Message Framing and Routing</text>		</g>
		<g id="shape3315-22" transform="translate(7.102,-3.22262)">
			<title>Sheet.3315</title>
			<desc>IP Framing and Transport</desc>
			<path d="M129.97 183.72 L0 183.72 L0 206.56 L129.97 206.56 L129.97 183.72 Z" class="st3"/>
			<text x="18.83" y="198.14" class="st4">IP Framing and Transport</text>		</g>
		<g id="shape3316-25" transform="translate(165.76,-14.2209)">
			<title>Sheet.3316</title>
			<desc>Data Model</desc>
			<path d="M215.12 15.22 L0 15.22 L0 206.56 L215.12 206.56 L215.12 15.22 Z" class="st3"/>
			<text x="8.5" y="28.72" class="st5">Data Model</text>		</g>
		<g id="shape3317-28" transform="translate(175.081,-18.4728)">
			<title>Sheet.3317</title>
			<desc>Node 0</desc>
			<path d="M144.18 41.87 L0 41.87 L0 206.56 L144.18 206.56 L144.18 41.87 Z" class="st6"/>
			<text x="4" y="56.67" class="st5">Node 0</text>		</g>
		<g id="shape3318-31" transform="translate(180.75,-24.1421)">
			<title>Sheet.3318</title>
			<desc>Endpoint 1</desc>
			<path d="M133.23 71.47 L0 71.47 L0 206.56 L133.23 206.56 L133.23 71.47 Z" class="st7"/>
			<text x="4" y="86.27" class="st5">Endpoint 1</text>		</g>
		<g id="shape3319-34" transform="translate(325.317,-18.4728)">
			<title>Sheet.3319</title>
			<desc>Node n</desc>
			<path d="M49.41 40.99 L0 40.99 L0 206.56 L49.41 206.56 L49.41 40.99 Z" class="st6"/>
			<text x="4" y="55.79" class="st5">Node n</text>		</g>
		<g id="shape3320-37" transform="translate(189.254,-30.2376)">
			<title>Sheet.3320</title>
			<desc>Cluster</desc>
			<path d="M119.06 99.27 L0 99.27 L0 206.56 L119.06 206.56 L119.06 99.27 Z" class="st8"/>
			<text x="4" y="114.07" class="st9">Cluster</text>		</g>
		<g id="shape3321-40" transform="translate(194.923,-88.2051)">
			<title>Sheet.3321</title>
			<desc>Attribute</desc>
			<path d="M107.72 183.72 L0 183.72 L0 206.56 L107.72 206.56 L107.72 183.72 Z" class="st6"/>
			<text x="4" y="198.52" class="st10">Attribute</text>		</g>
		<g id="shape3322-43" transform="translate(194.923,-61.9662)">
			<title>Sheet.3322</title>
			<desc>Attribute (Event)</desc>
			<path d="M107.72 183.72 L0 183.72 L0 206.56 L107.72 206.56 L107.72 183.72 Z" class="st6"/>
			<text x="4" y="198.52" class="st10">Attribute (Event)</text>		</g>
		<g id="shape3323-46" transform="translate(194.923,-35.4807)">
			<title>Sheet.3323</title>
			<desc>Command</desc>
			<path d="M107.72 183.72 L0 183.72 L0 206.56 L107.72 206.56 L107.72 183.72 Z" class="st6"/>
			<text x="4" y="198.52" class="st10">Command</text>		</g>
		<g id="shape3325-49" transform="translate(137.073,-109.66)">
			<title>Dynamic connector</title>
			<path d="M0 206.56 L28.69 110.66" class="st11"/>
		</g>
		<g id="shape3326-52" transform="translate(137.073,-97.3124)">
			<title>Dynamic connector.3326</title>
			<path d="M0 206.56 L28.69 289.65" class="st11"/>
		</g>
	</g>
</svg>
